<?xml version="1.0" encoding="UTF-8" standalone="no"?>
<!DOCTYPE svg PUBLIC "-//W3C//DTD SVG 1.1//EN" "http://www.w3.org/Graphics/SVG/1.1/DTD/svg11.dtd">
<svg 
width="100%"
 height="100%" 
 viewBox="0 0 256 114" 
 version="1.1" 
 xmlns="http://www.w3.org/2000/svg" 
 xmlns:xlink="http://www.w3.org/1999/xlink"
  xml:space="preserve" 
  xmlns:serif="http://www.serif.com/" 
  style="fill-rule:evenodd;clip-rule:evenodd;stroke-linejoin:round;stroke-miterlimit:2;"
  fill="hsla(0,0%,0%, 0.05)"
  >
  <g id="Plan-de-travail1" serif:id="Plan de travail1" transform="matrix(0.32,0,0,0.188833,0,0)">
    <rect x="0" y="0" width="800" height="600" style="fill:none;" />
    <clipPath id="_clip1">
      <rect x="0" y="0" width="800" height="600" />
    </clipPath>
    <g clip-path="url(#_clip1)">
      <g transform="matrix(827.057,0,0,1401.54,-3.23069,749.361)">
        <path d="M0.25,-0.408C0.252,-0.406 0.258,-0.398 0.268,-0.386C0.278,-0.373 0.283,-0.365 0.284,-0.359C0.284,-0.358 0.283,-0.357 0.282,-0.357C0.281,-0.357 0.278,-0.36 0.271,-0.364L0.271,-0.36C0.271,-0.356 0.278,-0.342 0.29,-0.318C0.298,-0.3 0.302,-0.287 0.302,-0.278L0.302,-0.274C0.302,-0.251 0.295,-0.234 0.28,-0.22C0.275,-0.217 0.27,-0.215 0.264,-0.215C0.247,-0.215 0.232,-0.224 0.217,-0.241L0.217,-0.241C0.215,-0.241 0.213,-0.232 0.211,-0.213L0.211,-0.21C0.211,-0.191 0.219,-0.174 0.233,-0.159C0.249,-0.145 0.271,-0.138 0.3,-0.138C0.337,-0.138 0.384,-0.155 0.441,-0.19C0.463,-0.205 0.474,-0.214 0.474,-0.219C0.474,-0.223 0.468,-0.236 0.455,-0.256L0.434,-0.303C0.43,-0.306 0.429,-0.308 0.429,-0.31C0.433,-0.329 0.437,-0.338 0.438,-0.338C0.441,-0.337 0.444,-0.333 0.448,-0.326C0.465,-0.306 0.474,-0.294 0.474,-0.292L0.474,-0.29C0.474,-0.289 0.473,-0.289 0.472,-0.288L0.461,-0.292L0.461,-0.292C0.461,-0.29 0.468,-0.279 0.48,-0.257C0.483,-0.25 0.484,-0.241 0.484,-0.232C0.484,-0.213 0.48,-0.197 0.471,-0.184C0.451,-0.169 0.434,-0.157 0.419,-0.149C0.396,-0.136 0.374,-0.126 0.353,-0.119C0.331,-0.111 0.313,-0.106 0.297,-0.106L0.292,-0.106C0.263,-0.106 0.238,-0.117 0.218,-0.139C0.207,-0.153 0.201,-0.17 0.201,-0.189L0.201,-0.198C0.201,-0.214 0.205,-0.231 0.211,-0.249L0.211,-0.25C0.205,-0.264 0.202,-0.274 0.202,-0.279C0.202,-0.283 0.202,-0.286 0.201,-0.291L0.2,-0.291C0.2,-0.267 0.194,-0.247 0.183,-0.23C0.171,-0.217 0.158,-0.21 0.145,-0.21L0.143,-0.21C0.124,-0.21 0.108,-0.22 0.098,-0.241C0.093,-0.255 0.091,-0.266 0.091,-0.276C0.091,-0.292 0.094,-0.312 0.1,-0.336L0.1,-0.337L0.099,-0.338C0.088,-0.325 0.081,-0.306 0.078,-0.281C0.073,-0.25 0.069,-0.23 0.064,-0.222C0.058,-0.211 0.052,-0.205 0.046,-0.205C0.038,-0.205 0.028,-0.212 0.019,-0.227C0.009,-0.243 0.004,-0.263 0.004,-0.287L0.004,-0.292C0.004,-0.305 0.005,-0.315 0.007,-0.321L0.008,-0.323L0.009,-0.323C0.011,-0.323 0.011,-0.321 0.011,-0.316L0.01,-0.303C0.012,-0.282 0.014,-0.268 0.017,-0.26C0.024,-0.241 0.033,-0.232 0.043,-0.232C0.055,-0.232 0.063,-0.25 0.068,-0.285C0.073,-0.312 0.08,-0.333 0.086,-0.348C0.095,-0.364 0.102,-0.373 0.109,-0.375L0.11,-0.375C0.113,-0.372 0.115,-0.367 0.115,-0.36L0.115,-0.355C0.115,-0.35 0.112,-0.333 0.107,-0.305C0.106,-0.301 0.106,-0.296 0.106,-0.291L0.106,-0.286C0.106,-0.269 0.113,-0.255 0.127,-0.247C0.132,-0.244 0.138,-0.243 0.145,-0.243C0.165,-0.243 0.179,-0.253 0.189,-0.274C0.191,-0.284 0.192,-0.292 0.192,-0.3L0.192,-0.307C0.192,-0.32 0.189,-0.343 0.182,-0.375C0.182,-0.38 0.185,-0.389 0.192,-0.402L0.193,-0.402C0.197,-0.402 0.202,-0.386 0.209,-0.355C0.215,-0.306 0.221,-0.277 0.229,-0.269C0.239,-0.254 0.252,-0.247 0.268,-0.247C0.277,-0.247 0.285,-0.251 0.291,-0.259C0.283,-0.279 0.274,-0.3 0.264,-0.323C0.253,-0.354 0.246,-0.372 0.244,-0.376C0.243,-0.378 0.242,-0.38 0.24,-0.382C0.244,-0.399 0.248,-0.408 0.25,-0.408Z" />
      </g>
      <g transform="matrix(827.057,0,0,1401.54,-3.23069,749.361)">
        <path d="M0.492,-0.178C0.499,-0.178 0.503,-0.175 0.504,-0.17L0.504,-0.168C0.501,-0.158 0.497,-0.151 0.491,-0.146C0.484,-0.14 0.481,-0.136 0.481,-0.133C0.483,-0.127 0.488,-0.125 0.496,-0.125L0.497,-0.125C0.514,-0.125 0.531,-0.131 0.548,-0.144C0.555,-0.149 0.56,-0.152 0.564,-0.153C0.564,-0.153 0.564,-0.153 0.564,-0.153C0.563,-0.148 0.554,-0.138 0.535,-0.123C0.52,-0.115 0.507,-0.11 0.495,-0.11L0.493,-0.11C0.482,-0.11 0.475,-0.114 0.473,-0.121L0.473,-0.124C0.473,-0.132 0.478,-0.142 0.486,-0.153C0.491,-0.156 0.493,-0.158 0.493,-0.161C0.492,-0.163 0.491,-0.164 0.487,-0.164C0.476,-0.162 0.47,-0.159 0.47,-0.155L0.469,-0.154L0.468,-0.154C0.468,-0.154 0.467,-0.155 0.467,-0.156L0.467,-0.157C0.47,-0.169 0.475,-0.175 0.48,-0.175C0.484,-0.177 0.488,-0.178 0.492,-0.178Z" />
      </g>
      <g transform="matrix(827.057,0,0,1401.54,-3.23069,749.361)">
        <path d="M0.184,-0.202L0.186,-0.202C0.187,-0.201 0.187,-0.2 0.187,-0.199C0.185,-0.191 0.182,-0.187 0.178,-0.187C0.167,-0.183 0.162,-0.18 0.162,-0.178C0.162,-0.177 0.158,-0.166 0.15,-0.145C0.149,-0.142 0.148,-0.139 0.148,-0.136L0.148,-0.136C0.149,-0.129 0.152,-0.125 0.156,-0.125C0.161,-0.125 0.166,-0.13 0.17,-0.14L0.171,-0.141L0.172,-0.141C0.173,-0.141 0.173,-0.141 0.173,-0.14C0.169,-0.12 0.163,-0.111 0.154,-0.111C0.146,-0.112 0.142,-0.117 0.142,-0.126L0.142,-0.127C0.142,-0.137 0.146,-0.154 0.156,-0.177L0.156,-0.177C0.114,-0.16 0.091,-0.15 0.088,-0.147C0.088,-0.147 0.086,-0.147 0.081,-0.146C0.076,-0.143 0.073,-0.141 0.072,-0.141C0.071,-0.142 0.071,-0.142 0.071,-0.143C0.071,-0.151 0.075,-0.156 0.082,-0.157C0.142,-0.184 0.176,-0.199 0.184,-0.202Z" />
      </g>
      <g transform="matrix(827.057,0,0,1401.54,-3.23069,749.361)">
        <path d="M0.745,-0.186L0.747,-0.186C0.75,-0.186 0.754,-0.182 0.758,-0.174C0.758,-0.172 0.758,-0.171 0.758,-0.171C0.757,-0.165 0.756,-0.161 0.754,-0.161L0.753,-0.161C0.749,-0.167 0.745,-0.17 0.743,-0.17C0.737,-0.17 0.733,-0.155 0.729,-0.124C0.728,-0.12 0.726,-0.118 0.723,-0.118C0.72,-0.118 0.715,-0.124 0.711,-0.136C0.708,-0.141 0.706,-0.144 0.704,-0.144L0.702,-0.144L0.688,-0.154C0.687,-0.154 0.687,-0.155 0.687,-0.156C0.688,-0.166 0.69,-0.171 0.694,-0.171C0.702,-0.171 0.711,-0.16 0.722,-0.137C0.724,-0.137 0.727,-0.146 0.73,-0.166C0.734,-0.179 0.739,-0.186 0.745,-0.186Z" />
      </g>
      <g transform="matrix(827.057,0,0,1401.54,-3.23069,749.361)">
        <path d="M0.818,-0.179C0.822,-0.177 0.83,-0.171 0.843,-0.163L0.845,-0.161L0.845,-0.157C0.844,-0.15 0.84,-0.143 0.834,-0.135C0.833,-0.135 0.833,-0.134 0.832,-0.133C0.831,-0.133 0.826,-0.136 0.817,-0.143C0.808,-0.148 0.804,-0.152 0.804,-0.155C0.804,-0.157 0.808,-0.166 0.817,-0.179L0.818,-0.179Z" />
      </g>
      <g transform="matrix(827.057,0,0,1401.54,-3.23069,749.361)">
        <path d="M0.49,-0.528C0.497,-0.528 0.506,-0.484 0.517,-0.395C0.519,-0.375 0.522,-0.335 0.525,-0.273C0.528,-0.249 0.531,-0.232 0.535,-0.222C0.544,-0.197 0.561,-0.184 0.585,-0.184L0.589,-0.184C0.607,-0.184 0.632,-0.191 0.663,-0.206C0.667,-0.207 0.672,-0.21 0.678,-0.213L0.673,-0.213C0.647,-0.217 0.617,-0.22 0.584,-0.223C0.565,-0.227 0.552,-0.229 0.545,-0.229C0.542,-0.229 0.54,-0.228 0.537,-0.226L0.537,-0.226C0.536,-0.226 0.535,-0.227 0.535,-0.228C0.535,-0.231 0.538,-0.24 0.545,-0.256C0.546,-0.259 0.557,-0.264 0.578,-0.272C0.591,-0.278 0.603,-0.286 0.615,-0.296C0.622,-0.302 0.632,-0.313 0.645,-0.329C0.657,-0.34 0.665,-0.346 0.67,-0.346L0.671,-0.346C0.676,-0.346 0.68,-0.337 0.683,-0.318C0.687,-0.305 0.696,-0.295 0.71,-0.288C0.721,-0.283 0.733,-0.281 0.745,-0.281C0.766,-0.281 0.789,-0.288 0.814,-0.302C0.827,-0.31 0.835,-0.314 0.84,-0.314L0.841,-0.314C0.843,-0.314 0.843,-0.313 0.843,-0.311L0.843,-0.31C0.842,-0.306 0.842,-0.303 0.842,-0.302C0.846,-0.294 0.851,-0.291 0.857,-0.291C0.857,-0.29 0.86,-0.29 0.866,-0.29C0.882,-0.29 0.895,-0.3 0.905,-0.32C0.91,-0.329 0.915,-0.333 0.917,-0.333C0.919,-0.333 0.92,-0.332 0.92,-0.33C0.918,-0.323 0.917,-0.319 0.917,-0.317C0.917,-0.313 0.922,-0.307 0.931,-0.301C0.937,-0.299 0.942,-0.297 0.948,-0.296C0.956,-0.296 0.959,-0.298 0.959,-0.302C0.959,-0.304 0.958,-0.309 0.955,-0.316L0.955,-0.32C0.958,-0.335 0.961,-0.343 0.963,-0.343L0.963,-0.343C0.969,-0.333 0.971,-0.325 0.971,-0.318L0.971,-0.315C0.971,-0.306 0.967,-0.293 0.958,-0.276C0.954,-0.27 0.948,-0.268 0.94,-0.268C0.928,-0.268 0.916,-0.274 0.906,-0.287C0.904,-0.292 0.903,-0.295 0.902,-0.295C0.895,-0.285 0.889,-0.277 0.884,-0.271C0.876,-0.263 0.868,-0.259 0.86,-0.259C0.846,-0.259 0.836,-0.265 0.83,-0.276C0.829,-0.28 0.828,-0.283 0.828,-0.283L0.827,-0.283C0.826,-0.283 0.816,-0.278 0.798,-0.267C0.776,-0.257 0.757,-0.251 0.743,-0.251C0.715,-0.251 0.696,-0.258 0.686,-0.27C0.679,-0.276 0.673,-0.287 0.669,-0.303C0.668,-0.312 0.666,-0.316 0.663,-0.316C0.654,-0.314 0.641,-0.302 0.623,-0.279C0.61,-0.266 0.6,-0.257 0.592,-0.254C0.623,-0.248 0.665,-0.243 0.719,-0.238L0.788,-0.234L0.788,-0.233L0.778,-0.21C0.775,-0.207 0.773,-0.205 0.772,-0.205C0.762,-0.206 0.754,-0.206 0.75,-0.206C0.735,-0.206 0.709,-0.198 0.673,-0.183C0.662,-0.179 0.648,-0.174 0.634,-0.167C0.633,-0.167 0.627,-0.165 0.615,-0.16C0.598,-0.156 0.587,-0.154 0.581,-0.154C0.565,-0.154 0.554,-0.157 0.546,-0.164C0.535,-0.171 0.526,-0.182 0.52,-0.197C0.513,-0.221 0.509,-0.241 0.509,-0.258C0.507,-0.272 0.505,-0.309 0.502,-0.37C0.494,-0.438 0.487,-0.482 0.479,-0.502C0.479,-0.505 0.483,-0.513 0.489,-0.527C0.489,-0.528 0.489,-0.528 0.49,-0.528Z" />
      </g>
      <g transform="matrix(827.057,0,0,1401.54,-3.23069,749.361)">
        <path d="M0.285,-0.218L0.286,-0.218C0.287,-0.218 0.288,-0.216 0.288,-0.213C0.28,-0.192 0.276,-0.18 0.276,-0.177L0.276,-0.177C0.278,-0.173 0.28,-0.17 0.284,-0.17C0.286,-0.17 0.29,-0.175 0.293,-0.184L0.294,-0.184L0.295,-0.184C0.296,-0.184 0.297,-0.183 0.297,-0.181C0.296,-0.168 0.291,-0.16 0.282,-0.157C0.281,-0.156 0.28,-0.156 0.279,-0.156C0.274,-0.156 0.27,-0.16 0.268,-0.169L0.268,-0.171C0.268,-0.18 0.273,-0.195 0.283,-0.216L0.285,-0.218Z" />
      </g>
      <g transform="matrix(827.057,0,0,1401.54,-3.23069,749.361)">
        <path d="M0.931,-0.237C0.937,-0.237 0.941,-0.232 0.945,-0.223C0.944,-0.216 0.943,-0.213 0.942,-0.213L0.94,-0.213C0.935,-0.219 0.931,-0.222 0.928,-0.222L0.925,-0.222C0.921,-0.222 0.919,-0.212 0.919,-0.191C0.919,-0.183 0.918,-0.174 0.915,-0.166C0.914,-0.165 0.914,-0.165 0.914,-0.165L0.912,-0.165C0.908,-0.165 0.904,-0.172 0.899,-0.186C0.894,-0.193 0.891,-0.197 0.89,-0.197L0.89,-0.197C0.889,-0.196 0.888,-0.195 0.888,-0.195C0.878,-0.201 0.873,-0.204 0.873,-0.205C0.872,-0.206 0.872,-0.207 0.872,-0.208C0.872,-0.215 0.874,-0.219 0.878,-0.223L0.879,-0.223C0.886,-0.22 0.892,-0.216 0.897,-0.209C0.902,-0.202 0.907,-0.194 0.912,-0.183L0.913,-0.183C0.915,-0.219 0.921,-0.237 0.931,-0.237Z" />
      </g>
      <g transform="matrix(827.057,0,0,1401.54,-3.23069,749.361)">
        <path d="M0.296,-0.53L0.297,-0.53C0.299,-0.53 0.307,-0.515 0.321,-0.485C0.329,-0.468 0.333,-0.458 0.333,-0.455C0.333,-0.451 0.333,-0.449 0.332,-0.449C0.331,-0.449 0.326,-0.454 0.316,-0.464L0.315,-0.458L0.315,-0.456L0.328,-0.369C0.338,-0.302 0.343,-0.251 0.343,-0.217L0.343,-0.209C0.343,-0.183 0.339,-0.17 0.332,-0.17C0.33,-0.17 0.329,-0.172 0.329,-0.175L0.329,-0.183C0.329,-0.231 0.316,-0.334 0.292,-0.49C0.291,-0.493 0.289,-0.496 0.286,-0.501L0.286,-0.505C0.291,-0.519 0.294,-0.528 0.296,-0.53Z" />
      </g>
      <g transform="matrix(827.057,0,0,1401.54,-3.23069,749.361)">
        <path d="M0.825,-0.254C0.826,-0.254 0.826,-0.254 0.826,-0.254L0.817,-0.226L0.817,-0.225C0.817,-0.22 0.82,-0.216 0.825,-0.215C0.829,-0.215 0.833,-0.219 0.835,-0.228L0.836,-0.228L0.837,-0.228C0.838,-0.228 0.838,-0.227 0.838,-0.227C0.835,-0.21 0.83,-0.201 0.823,-0.201L0.822,-0.201C0.816,-0.201 0.812,-0.206 0.811,-0.215C0.811,-0.223 0.815,-0.235 0.822,-0.251L0.825,-0.254Z" />
      </g>
      <g transform="matrix(827.057,0,0,1401.54,-3.23069,749.361)">
        <path d="M0.415,-0.283L0.417,-0.283C0.421,-0.283 0.425,-0.279 0.43,-0.271C0.43,-0.262 0.429,-0.258 0.427,-0.258L0.426,-0.258C0.421,-0.264 0.416,-0.267 0.412,-0.267C0.408,-0.267 0.406,-0.26 0.404,-0.246C0.402,-0.223 0.401,-0.212 0.4,-0.212L0.398,-0.21L0.396,-0.21C0.394,-0.21 0.39,-0.217 0.385,-0.23C0.381,-0.237 0.378,-0.241 0.376,-0.242L0.373,-0.241C0.368,-0.246 0.364,-0.249 0.361,-0.25C0.36,-0.251 0.359,-0.253 0.359,-0.254L0.359,-0.256C0.359,-0.261 0.361,-0.265 0.364,-0.268L0.366,-0.268C0.374,-0.268 0.383,-0.258 0.394,-0.237C0.395,-0.234 0.396,-0.232 0.396,-0.232L0.397,-0.232C0.399,-0.255 0.402,-0.269 0.405,-0.274C0.408,-0.28 0.412,-0.283 0.415,-0.283Z" />
      </g>
      <g transform="matrix(827.057,0,0,1401.54,-3.23069,749.361)">
        <path d="M0.152,-0.344L0.153,-0.344L0.153,-0.344C0.146,-0.322 0.143,-0.309 0.143,-0.305L0.143,-0.303C0.144,-0.293 0.147,-0.289 0.151,-0.289C0.155,-0.289 0.157,-0.291 0.158,-0.296C0.159,-0.302 0.16,-0.306 0.162,-0.306L0.163,-0.306L0.163,-0.305C0.162,-0.285 0.157,-0.275 0.149,-0.275L0.147,-0.275C0.14,-0.278 0.137,-0.284 0.137,-0.294C0.137,-0.299 0.14,-0.313 0.147,-0.338C0.15,-0.342 0.152,-0.344 0.152,-0.344Z" />
      </g>
      <g transform="matrix(827.057,0,0,1401.54,-3.23069,749.361)">
        <path d="M0.061,-0.374L0.063,-0.374C0.069,-0.372 0.073,-0.368 0.073,-0.364C0.073,-0.362 0.072,-0.36 0.071,-0.355L0.072,-0.354C0.071,-0.353 0.071,-0.353 0.07,-0.353L0.07,-0.353C0.066,-0.357 0.063,-0.359 0.06,-0.359C0.054,-0.359 0.051,-0.352 0.051,-0.338C0.05,-0.315 0.049,-0.304 0.046,-0.304L0.043,-0.304C0.042,-0.304 0.039,-0.31 0.033,-0.323C0.029,-0.328 0.026,-0.331 0.023,-0.331C0.013,-0.336 0.008,-0.339 0.008,-0.342L0.008,-0.344C0.009,-0.352 0.011,-0.356 0.014,-0.356C0.021,-0.356 0.03,-0.348 0.039,-0.332C0.04,-0.331 0.041,-0.328 0.043,-0.323C0.045,-0.324 0.046,-0.326 0.046,-0.327C0.046,-0.352 0.05,-0.367 0.057,-0.373L0.061,-0.374Z" />
      </g>
      <g transform="matrix(827.057,0,0,1401.54,-3.23069,749.361)">
        <path d="M0.75,-0.376L0.755,-0.376C0.781,-0.375 0.794,-0.371 0.794,-0.366C0.794,-0.36 0.788,-0.349 0.776,-0.332C0.769,-0.325 0.761,-0.322 0.753,-0.322C0.737,-0.319 0.728,-0.317 0.725,-0.317C0.724,-0.317 0.724,-0.317 0.724,-0.318C0.724,-0.321 0.735,-0.327 0.758,-0.338C0.766,-0.341 0.77,-0.344 0.77,-0.344C0.77,-0.346 0.76,-0.347 0.741,-0.348C0.736,-0.348 0.729,-0.347 0.719,-0.346L0.718,-0.346C0.718,-0.346 0.717,-0.347 0.717,-0.347L0.717,-0.348C0.725,-0.364 0.729,-0.373 0.73,-0.373C0.732,-0.375 0.738,-0.376 0.75,-0.376Z" />
      </g>
      <g transform="matrix(827.057,0,0,1401.54,-3.23069,749.361)">
        <path d="M0.863,-0.505C0.864,-0.504 0.864,-0.502 0.864,-0.501L0.864,-0.499C0.864,-0.493 0.862,-0.49 0.857,-0.49C0.854,-0.489 0.846,-0.486 0.833,-0.483C0.794,-0.47 0.746,-0.452 0.691,-0.429C0.686,-0.428 0.684,-0.425 0.684,-0.42C0.679,-0.407 0.676,-0.4 0.676,-0.397C0.678,-0.39 0.68,-0.387 0.683,-0.387C0.686,-0.387 0.688,-0.391 0.69,-0.397C0.692,-0.4 0.693,-0.402 0.694,-0.402C0.695,-0.402 0.696,-0.4 0.696,-0.396L0.696,-0.395C0.692,-0.38 0.687,-0.373 0.68,-0.373L0.679,-0.373C0.674,-0.373 0.671,-0.378 0.67,-0.389L0.67,-0.391C0.67,-0.399 0.673,-0.409 0.679,-0.423L0.679,-0.423C0.619,-0.4 0.577,-0.381 0.553,-0.367L0.551,-0.365L0.551,-0.365C0.551,-0.36 0.557,-0.354 0.57,-0.348L0.571,-0.347C0.57,-0.339 0.567,-0.334 0.563,-0.334L0.562,-0.334C0.549,-0.342 0.543,-0.349 0.543,-0.357C0.543,-0.366 0.548,-0.374 0.558,-0.383C0.613,-0.409 0.688,-0.441 0.783,-0.477C0.831,-0.496 0.858,-0.505 0.863,-0.505Z" />
      </g>
      <g transform="matrix(827.057,0,0,1401.54,-3.23069,749.361)">
        <path d="M0.371,-0.384C0.381,-0.377 0.391,-0.372 0.399,-0.367L0.4,-0.365C0.397,-0.353 0.393,-0.344 0.388,-0.339C0.385,-0.339 0.375,-0.345 0.358,-0.357C0.358,-0.358 0.358,-0.358 0.357,-0.359C0.359,-0.365 0.363,-0.374 0.37,-0.384L0.371,-0.384Z" />
      </g>
      <g transform="matrix(827.057,0,0,1401.54,-3.23069,749.361)">
        <path d="M0.45,-0.437L0.45,-0.437L0.451,-0.436C0.45,-0.429 0.446,-0.418 0.441,-0.403L0.441,-0.396C0.441,-0.388 0.444,-0.383 0.449,-0.381L0.45,-0.381C0.454,-0.381 0.457,-0.386 0.458,-0.397L0.46,-0.399C0.461,-0.399 0.461,-0.396 0.461,-0.391C0.461,-0.379 0.458,-0.371 0.451,-0.367L0.448,-0.367C0.441,-0.367 0.437,-0.374 0.435,-0.387L0.435,-0.389C0.435,-0.395 0.439,-0.41 0.446,-0.432C0.448,-0.435 0.449,-0.437 0.45,-0.437Z" />
      </g>
      <g transform="matrix(827.057,0,0,1401.54,-3.23069,749.361)">
        <path d="M0.161,-0.427L0.162,-0.427C0.165,-0.427 0.169,-0.424 0.172,-0.418C0.171,-0.411 0.17,-0.408 0.169,-0.408L0.168,-0.408C0.165,-0.412 0.162,-0.415 0.16,-0.415L0.158,-0.415C0.156,-0.415 0.154,-0.412 0.153,-0.407C0.152,-0.382 0.151,-0.369 0.148,-0.369L0.147,-0.369C0.145,-0.369 0.141,-0.374 0.138,-0.383C0.135,-0.389 0.133,-0.392 0.131,-0.392C0.127,-0.392 0.123,-0.394 0.118,-0.399C0.118,-0.401 0.117,-0.402 0.117,-0.402C0.117,-0.407 0.119,-0.41 0.122,-0.413L0.124,-0.413C0.129,-0.413 0.137,-0.404 0.147,-0.385L0.147,-0.385C0.149,-0.41 0.151,-0.422 0.154,-0.422C0.156,-0.425 0.158,-0.427 0.161,-0.427Z" />
      </g>
      <g transform="matrix(827.057,0,0,1401.54,-3.23069,749.361)">
        <path d="M0.138,-0.524C0.152,-0.512 0.16,-0.498 0.16,-0.48L0.159,-0.468L0.16,-0.467C0.217,-0.493 0.255,-0.508 0.271,-0.515C0.272,-0.513 0.273,-0.512 0.273,-0.512C0.273,-0.504 0.266,-0.498 0.251,-0.494C0.176,-0.463 0.1,-0.428 0.024,-0.388C0.024,-0.388 0.023,-0.387 0.021,-0.386C0.021,-0.386 0.021,-0.386 0.021,-0.387C0.021,-0.395 0.029,-0.403 0.046,-0.411C0.075,-0.426 0.11,-0.443 0.151,-0.462C0.152,-0.464 0.153,-0.465 0.153,-0.466C0.153,-0.485 0.147,-0.499 0.134,-0.507C0.133,-0.509 0.132,-0.511 0.132,-0.512C0.134,-0.52 0.135,-0.524 0.138,-0.524Z" />
      </g>
      <g transform="matrix(827.057,0,0,1401.54,-3.23069,749.361)">
        <path d="M0.85,-0.457C0.854,-0.457 0.858,-0.453 0.862,-0.445L0.862,-0.444C0.861,-0.438 0.86,-0.435 0.858,-0.435L0.858,-0.435C0.853,-0.44 0.849,-0.443 0.846,-0.443L0.845,-0.443C0.842,-0.443 0.84,-0.432 0.838,-0.41C0.836,-0.398 0.834,-0.393 0.832,-0.393L0.829,-0.393C0.828,-0.393 0.825,-0.399 0.82,-0.411C0.818,-0.415 0.816,-0.418 0.813,-0.42L0.813,-0.42L0.812,-0.418C0.802,-0.424 0.798,-0.427 0.798,-0.428C0.797,-0.428 0.797,-0.428 0.797,-0.43L0.797,-0.432C0.799,-0.439 0.801,-0.443 0.804,-0.443C0.811,-0.442 0.818,-0.435 0.825,-0.421C0.828,-0.416 0.83,-0.411 0.832,-0.407L0.832,-0.407L0.837,-0.443C0.84,-0.452 0.845,-0.457 0.85,-0.457Z" />
      </g>
      <g transform="matrix(827.057,0,0,1401.54,-3.23069,749.361)">
        <path d="M0.469,-0.471L0.47,-0.471C0.47,-0.471 0.471,-0.471 0.471,-0.47C0.469,-0.46 0.466,-0.455 0.46,-0.455C0.406,-0.434 0.367,-0.417 0.341,-0.404L0.335,-0.399L0.334,-0.399C0.334,-0.399 0.333,-0.399 0.333,-0.4L0.333,-0.402C0.335,-0.408 0.338,-0.413 0.343,-0.417C0.375,-0.432 0.415,-0.449 0.461,-0.468C0.465,-0.47 0.467,-0.471 0.469,-0.471Z" />
      </g>
      <g transform="matrix(827.057,0,0,1401.54,-3.23069,749.361)">
        <path d="M0.54,-0.531C0.542,-0.531 0.546,-0.527 0.55,-0.52C0.569,-0.498 0.579,-0.474 0.579,-0.448C0.579,-0.431 0.576,-0.417 0.569,-0.405L0.569,-0.405L0.568,-0.406L0.568,-0.407C0.57,-0.423 0.571,-0.433 0.571,-0.437L0.571,-0.442C0.571,-0.465 0.559,-0.489 0.537,-0.513C0.534,-0.513 0.533,-0.514 0.533,-0.517C0.533,-0.521 0.535,-0.526 0.54,-0.531Z" />
      </g>
      <g transform="matrix(827.057,0,0,1401.54,-3.23069,749.361)">
        <path d="M0.258,-0.473C0.259,-0.473 0.26,-0.47 0.263,-0.463C0.269,-0.457 0.271,-0.452 0.271,-0.446C0.271,-0.434 0.269,-0.428 0.265,-0.428L0.262,-0.428C0.257,-0.428 0.253,-0.431 0.248,-0.438C0.245,-0.428 0.241,-0.423 0.235,-0.423L0.235,-0.423C0.229,-0.423 0.226,-0.432 0.226,-0.449C0.226,-0.449 0.225,-0.451 0.225,-0.455C0.225,-0.457 0.226,-0.46 0.228,-0.462C0.229,-0.462 0.23,-0.459 0.23,-0.454L0.23,-0.443C0.231,-0.438 0.233,-0.435 0.236,-0.435C0.241,-0.435 0.244,-0.439 0.245,-0.446C0.245,-0.448 0.244,-0.453 0.241,-0.461L0.241,-0.462C0.241,-0.466 0.242,-0.469 0.245,-0.471C0.248,-0.467 0.251,-0.459 0.253,-0.446C0.257,-0.442 0.261,-0.44 0.266,-0.44C0.266,-0.44 0.267,-0.44 0.268,-0.44L0.268,-0.443C0.268,-0.444 0.264,-0.449 0.258,-0.458C0.257,-0.462 0.256,-0.465 0.256,-0.468C0.257,-0.471 0.257,-0.473 0.258,-0.473Z" />
      </g>
      <g transform="matrix(3.125,0,0,5.29568,0,0)">
        <path d="M238.167,21.193C239.89,21.193 241.096,23.261 241.785,27.396L241.785,27.655C241.785,27.827 241.613,28.516 241.268,29.722C241.268,29.981 242.517,30.885 245.016,32.436L245.016,34.116C245.016,35.322 244.585,35.925 243.723,35.925L243.465,35.925C242.259,34.978 240.967,34.245 239.588,33.728C237.779,36.744 236.228,38.682 234.936,39.544C230.37,43.765 226.062,46.953 222.013,49.107C220.29,50.743 217.49,52.682 213.613,54.922L213.226,54.922C213.139,54.922 212.967,54.793 212.709,54.534L212.709,54.146C213.656,53.113 216.844,50.7 222.272,46.91C228.647,42.257 233.687,38.036 237.391,34.245L237.908,33.082C237.908,32.824 236.96,32.307 235.065,31.532C233.342,30.67 232.481,29.679 232.481,28.559L232.481,27.784C233.428,24.769 234.807,22.701 236.616,21.581C237.305,21.323 237.822,21.193 238.167,21.193ZM234.677,26.492L234.677,26.621C235.539,27.482 237.348,28.387 240.105,29.335C239.588,26.233 238.64,24.682 237.262,24.682C237.262,24.596 237.133,24.553 236.874,24.553C235.41,24.984 234.677,25.63 234.677,26.492Z" />
      </g>
      <g transform="matrix(827.057,0,0,1401.54,-3.23069,749.361)">
        <path d="M0.669,-0.534L0.67,-0.534C0.675,-0.534 0.679,-0.53 0.684,-0.523L0.684,-0.52L0.684,-0.519C0.684,-0.513 0.683,-0.509 0.681,-0.509C0.674,-0.515 0.67,-0.518 0.668,-0.518L0.667,-0.518C0.661,-0.518 0.658,-0.508 0.658,-0.49C0.657,-0.471 0.654,-0.461 0.651,-0.461L0.65,-0.461C0.648,-0.461 0.644,-0.467 0.64,-0.479C0.637,-0.484 0.633,-0.488 0.628,-0.494L0.626,-0.492L0.625,-0.492C0.615,-0.499 0.61,-0.503 0.61,-0.504C0.61,-0.505 0.609,-0.506 0.609,-0.507C0.611,-0.516 0.614,-0.521 0.617,-0.521C0.624,-0.521 0.635,-0.51 0.648,-0.487C0.648,-0.486 0.649,-0.484 0.651,-0.481C0.653,-0.506 0.655,-0.521 0.658,-0.523C0.662,-0.53 0.666,-0.534 0.669,-0.534Z" />
      </g>
      <g transform="matrix(827.057,0,0,1401.54,-3.23069,749.361)">
        <path d="M0.414,-0.534L0.417,-0.534C0.422,-0.534 0.427,-0.53 0.431,-0.522C0.43,-0.513 0.429,-0.509 0.427,-0.509C0.421,-0.516 0.417,-0.52 0.414,-0.52C0.408,-0.52 0.404,-0.51 0.403,-0.492C0.402,-0.473 0.4,-0.463 0.396,-0.463L0.396,-0.463C0.392,-0.463 0.388,-0.469 0.385,-0.48C0.38,-0.49 0.376,-0.495 0.374,-0.495C0.371,-0.495 0.366,-0.498 0.357,-0.503L0.356,-0.507C0.358,-0.517 0.36,-0.522 0.362,-0.522L0.364,-0.522C0.373,-0.522 0.383,-0.509 0.395,-0.483C0.395,-0.483 0.395,-0.482 0.396,-0.481C0.396,-0.481 0.398,-0.489 0.399,-0.504C0.4,-0.514 0.403,-0.523 0.407,-0.53C0.41,-0.533 0.412,-0.534 0.414,-0.534Z" />
      </g>
      <g transform="matrix(827.057,0,0,1401.54,-3.23069,749.361)">
        <path d="M0.738,-0.535L0.739,-0.535C0.739,-0.535 0.74,-0.534 0.74,-0.533C0.74,-0.529 0.738,-0.521 0.733,-0.51C0.733,-0.508 0.732,-0.506 0.732,-0.503L0.732,-0.501C0.732,-0.495 0.734,-0.491 0.738,-0.488L0.74,-0.488C0.745,-0.488 0.748,-0.492 0.749,-0.5C0.75,-0.502 0.751,-0.503 0.751,-0.503C0.753,-0.502 0.753,-0.5 0.753,-0.499C0.75,-0.484 0.748,-0.477 0.745,-0.477C0.742,-0.475 0.739,-0.474 0.737,-0.474L0.736,-0.474C0.731,-0.474 0.728,-0.479 0.726,-0.49L0.726,-0.493C0.726,-0.502 0.729,-0.515 0.735,-0.531C0.737,-0.534 0.738,-0.535 0.738,-0.535Z" />
      </g>
    </g>
  </g>
</svg>